# xmcd
#
# Track frame offsets: 
#        150
#        16524
#        30952
#        46014
#        63441
#        80186
#        96791
#        120556
#        137845
#        153255
#        170888
#        186629
#        204836
#        221420
#        237720
#        255176
#        276754
#        295280
#        309853
#        331833
#
# Disc length: 4613 seconds
#
# Revision: 1
# Processed by: cddbd v1.5.2PL0 Copyright (c) Steve Scherf et al.
# Submitted via: ExactAudioCopy v0.95b4
#
DISCID=12120314
DTITLE=Various Artist - PrimeCuts - HP200906 - 020609
DYEAR=2009
DGENRE=Top 40
TTITLE0=O.A.R. - This Town
TTITLE1=Jason Mraz and Colbie Caillat - Lucky
TTITLE2=Ballas Hough Band - Do It For You [Radio Edit]
TTITLE3=White Tie Affair - Candle (Sick And Tired) [Album Version]
TTITLE4=Kid Cudi - Day N Nite
TTITLE5=Lil' Wayne - Prom Queen
TTITLE6=Eminem, Dr. Dre, 50 Cent - Crack a Bottle [Super Clean]
TTITLE7=DJ Felli Fel Feat. T-Pain, Sean Paul, Flo Rida, and Pitbull - Fe
TTITLE7=el It [Clean]
TTITLE8=David Rush Feat. Pitbull and Kevin Rudolf - Shooting Star [Album
TTITLE8=Version]
TTITLE9=Fat Joe Feat. Akon - One [Clean]
TTITLE10=Electrik Red - So Good [Clean]
TTITLE11=John Rich - Shuttin' Detroit Down
TTITLE12=Justin Moore - Small Town USA
TTITLE13=Bomshel - Fight Like A Girl
TTITLE14=Iglu and Hartly - In This City
TTITLE15=Disturbed - The Night
TTITLE16=Kid Rock - Low Life
TTITLE17=Celine Dion vs. Maurice Joshua - I'm Alive [Radio Edit]
TTITLE18=John Waller - While I'm Waiting [Album Version]
TTITLE19=Above The Golden State - I'll Love You So
EXTD=
EXTT0=
EXTT1=
EXTT2=
EXTT3=
EXTT4=
EXTT5=
EXTT6=
EXTT7=
EXTT8=
EXTT9=
EXTT10=
EXTT11=
EXTT12=
EXTT13=
EXTT14=
EXTT15=
EXTT16=
EXTT17=
EXTT18=
EXTT19=
PLAYORDER=
